<svg xmlns="http://www.w3.org/2000/svg" xmlns:svg="http://www.w3.org/2000/svg" id="svg2" width="800" height="320" version="1.1" viewBox="0 0 800 320"><metadata id="metadata7"/><g id="layer1" transform="translate(0,-732.36214)"><circle style="fill:#000;fill-opacity:0;fill-rule:evenodd;stroke:#000;stroke-width:20;stroke-linecap:butt;stroke-linejoin:miter;stroke-miterlimit:4;stroke-dasharray:none;stroke-opacity:1" id="path3336" cx="120" cy="852.362" r="88.333"/><g style="font-style:normal;font-weight:400;font-size:89.86699677px;line-height:125%;font-family:sans-serif;letter-spacing:0;word-spacing:0;fill:#000;fill-opacity:1;stroke:none;stroke-width:.44510224;stroke-linecap:butt;stroke-linejoin:miter;stroke-miterlimit:4;stroke-dasharray:none;stroke-opacity:1" id="text4150" transform="scale(0.99788658,1.0021179)"><path style="font-style:normal;font-variant:normal;font-weight:400;font-stretch:normal;font-size:404.40148926px;font-family:'Gill Sans MT';-inkscape-font-specification:'Gill Sans MT';stroke-width:.44510224;stroke-miterlimit:4;stroke-dasharray:none" id="path4157" d="m 399.56366,750.77204 16.19186,0 0,154.80995 30.80402,0 0,33.56848 -30.80402,0 0,91.02983 -38.50502,0 0,-91.02983 -116.69985,0 0,-16.9817 139.01301,-171.39673 z m -22.31316,154.80995 0,-79.97198 -63.78012,79.97198 63.78012,0 z"/><path style="font-style:normal;font-variant:normal;font-weight:400;font-stretch:normal;font-size:404.40148926px;font-family:'Gill Sans MT';-inkscape-font-specification:'Gill Sans MT';stroke-width:.44510224;stroke-miterlimit:4;stroke-dasharray:none" id="path4159" d="m 539.95891,754.32635 39.49233,0 0,275.85395 -39.49233,0 0,-275.85395 z"/><path style="font-style:normal;font-variant:normal;font-weight:400;font-stretch:normal;font-size:404.40148926px;font-family:'Gill Sans MT';-inkscape-font-specification:'Gill Sans MT';stroke-width:.44510224;stroke-miterlimit:4;stroke-dasharray:none" id="path4161" d="m 742.15965,754.32635 39.49233,0 0,275.85395 -39.49233,0 0,-275.85395 z"/></g><rect style="fill:#000;fill-opacity:0;stroke:#000;stroke-width:20;stroke-linejoin:bevel;stroke-miterlimit:4;stroke-dasharray:none;stroke-opacity:1;stroke-dashoffset:0" id="rect4146" width="180.6" height="180.6" x="29.7" y="982.062"/></g></svg>